HIERARCHY
ROOT Hips
{
  OFFSET 5.84602e-005 68.8428 3.50346
  CHANNELS 6 Xposition Yposition Zposition Zrotation Xrotation Yrotation
  JOINT Spine
  {
    OFFSET 0 8.597 -4.6522
    CHANNELS 3 Zrotation Xrotation Yrotation
    JOINT Spine1
    {
      OFFSET 0 7.8454 0.4098
      CHANNELS 3 Zrotation Xrotation Yrotation
      JOINT Spine2
      {
        OFFSET 0 9.7078 -2.1609
        CHANNELS 3 Zrotation Xrotation Yrotation
        JOINT Neck
        {
          OFFSET 0 21.8761 -0.4549
          CHANNELS 3 Zrotation Xrotation Yrotation
          JOINT Head
          {
            OFFSET 0 12.3537 3.3602
            CHANNELS 3 Zrotation Xrotation Yrotation
            End Site
            {
              OFFSET 0.0001 18.9506 0.5657
            }
          }
        }
        JOINT LeftShoulder
        {
          OFFSET 2.2086 21.1115 7.2329
          CHANNELS 3 Zrotation Xrotation Yrotation
          JOINT LeftArm
          {
            OFFSET 13.1193 3.0282 -4.8998
            CHANNELS 3 Zrotation Xrotation Yrotation
            JOINT LeftForeArm
            {
              OFFSET 27.4081 -0.0973053 -0.2375
              CHANNELS 3 Zrotation Xrotation Yrotation
              JOINT LeftHand
              {
                OFFSET 22.8641 0.0662994 -0.1369
                CHANNELS 3 Zrotation Xrotation Yrotation
                JOINT LeftHandIndex1
                {
                  OFFSET 8.8614 0.775009 2.4612
                  CHANNELS 3 Zrotation Xrotation Yrotation
                  JOINT LeftHandIndex2
                  {
                    OFFSET 3.3146 -0.808304 0.5841
                    CHANNELS 3 Zrotation Xrotation Yrotation
                    JOINT LeftHandIndex3
                    {
                      OFFSET 2.2628 -0.552002 0.3989
                      CHANNELS 3 Zrotation Xrotation Yrotation
                      End Site
                      {
                        OFFSET 1.6102 -0.4807 0.2612
                      }
                    }
                  }
                }
                JOINT LeftHandMiddle1
                {
                  OFFSET 8.9937 0.895004 0.2143
                  CHANNELS 3 Zrotation Xrotation Yrotation
                  JOINT LeftHandMiddle2
                  {
                    OFFSET 4.0984 0.0113983 -0.0242
                    CHANNELS 3 Zrotation Xrotation Yrotation
                    JOINT LeftHandMiddle3
                    {
                      OFFSET 2.2716 0.00689697 -0.0138001
                      CHANNELS 3 Zrotation Xrotation Yrotation
                      End Site
                      {
                        OFFSET 2.0404 -0.1441 0.0027
                      }
                    }
                  }
                }
                JOINT LeftHandRing1
                {
                  OFFSET 8.5234 0.597198 -2.0164
                  CHANNELS 3 Zrotation Xrotation Yrotation
                  JOINT LeftHandRing2
                  {
                    OFFSET 3.7188 -0.188293 -0.2328
                    CHANNELS 3 Zrotation Xrotation Yrotation
                    JOINT LeftHandRing3
                    {
                      OFFSET 2.1191 -0.106598 -0.1332
                      CHANNELS 3 Zrotation Xrotation Yrotation
                      End Site
                      {
                        OFFSET 1.8737 -0.2304 -0.0886
                      }
                    }
                  }
                }
                JOINT LeftHandPinky1
                {
                  OFFSET 7.9094 -0.601089 -3.4825
                  CHANNELS 3 Zrotation Xrotation Yrotation
                  JOINT LeftHandPinky2
                  {
                    OFFSET 2.2874 -0.477005 -0.6314
                    CHANNELS 3 Zrotation Xrotation Yrotation
                    JOINT LeftHandPinky3
                    {
                      OFFSET 1.6774 -0.349396 -0.4633
                      CHANNELS 3 Zrotation Xrotation Yrotation
                      End Site
                      {
                        OFFSET 1.4888 -0.4091 -0.3416
                      }
                    }
                  }
                }
                JOINT LeftHandThumb1
                {
                  OFFSET 1.833 -1.3875 1.3896
                  CHANNELS 3 Zrotation Xrotation Yrotation
                  JOINT LeftHandThumb2
                  {
                    OFFSET 3.4129 -1.121 2.5732
                    CHANNELS 3 Zrotation Xrotation Yrotation
                    JOINT LeftHandThumb3
                    {
                      OFFSET 2.2474 -0.804199 1.6192
                      CHANNELS 3 Zrotation Xrotation Yrotation
                      End Site
                      {
                        OFFSET 1.6527 -0.5689 1.1317
                      }
                    }
                  }
                }
              }
            }
          }
        }
        JOINT RightShoulder
        {
          OFFSET -2.2086 21.1115 7.2329
          CHANNELS 3 Zrotation Xrotation Yrotation
          JOINT RightArm
          {
            OFFSET -13.1216 3.0287 -4.9007
            CHANNELS 3 Zrotation Xrotation Yrotation
            JOINT RightForeArm
            {
              OFFSET -27.4081 -0.0973053 -0.2375
              CHANNELS 3 Zrotation Xrotation Yrotation
              JOINT RightHand
              {
                OFFSET -22.8641 0.0664063 -0.1369
                CHANNELS 3 Zrotation Xrotation Yrotation
                JOINT RightHandIndex1
                {
                  OFFSET -8.8614 0.774994 2.4612
                  CHANNELS 3 Zrotation Xrotation Yrotation
                  JOINT RightHandIndex2
                  {
                    OFFSET -3.3146 -0.808304 0.5841
                    CHANNELS 3 Zrotation Xrotation Yrotation
                    JOINT RightHandIndex3
                    {
                      OFFSET -2.2628 -0.552002 0.3989
                      CHANNELS 3 Zrotation Xrotation Yrotation
                      End Site
                      {
                        OFFSET -1.6102 -0.4807 0.2612
                      }
                    }
                  }
                }
                JOINT RightHandMiddle1
                {
                  OFFSET -8.9937 0.894989 0.2143
                  CHANNELS 3 Zrotation Xrotation Yrotation
                  JOINT RightHandMiddle2
                  {
                    OFFSET -4.0984 0.0113983 -0.0242
                    CHANNELS 3 Zrotation Xrotation Yrotation
                    JOINT RightHandMiddle3
                    {
                      OFFSET -2.2716 0.00691223 -0.0138001
                      CHANNELS 3 Zrotation Xrotation Yrotation
                      End Site
                      {
                        OFFSET -2.0404 -0.1441 0.0027
                      }
                    }
                  }
                }
                JOINT RightHandRing1
                {
                  OFFSET -8.5234 0.597198 -2.0164
                  CHANNELS 3 Zrotation Xrotation Yrotation
                  JOINT RightHandRing2
                  {
                    OFFSET -3.7188 -0.188309 -0.2328
                    CHANNELS 3 Zrotation Xrotation Yrotation
                    JOINT RightHandRing3
                    {
                      OFFSET -2.1191 -0.106598 -0.1332
                      CHANNELS 3 Zrotation Xrotation Yrotation
                      End Site
                      {
                        OFFSET -1.8737 -0.2304 -0.0886
                      }
                    }
                  }
                }
                JOINT RightHandPinky1
                {
                  OFFSET -7.9094 -0.601105 -3.4825
                  CHANNELS 3 Zrotation Xrotation Yrotation
                  JOINT RightHandPinky2
                  {
                    OFFSET -2.2874 -0.477005 -0.6314
                    CHANNELS 3 Zrotation Xrotation Yrotation
                    JOINT RightHandPinky3
                    {
                      OFFSET -1.6774 -0.349396 -0.4633
                      CHANNELS 3 Zrotation Xrotation Yrotation
                      End Site
                      {
                        OFFSET -1.4888 -0.4091 -0.3416
                      }
                    }
                  }
                }
                JOINT RightHandThumb1
                {
                  OFFSET -1.833 -1.38751 1.3896
                  CHANNELS 3 Zrotation Xrotation Yrotation
                  JOINT RightHandThumb2
                  {
                    OFFSET -3.41299 -1.12099 2.5732
                    CHANNELS 3 Zrotation Xrotation Yrotation
                    JOINT RightHandThumb3
                    {
                      OFFSET -2.24741 -0.804108 1.6192
                      CHANNELS 3 Zrotation Xrotation Yrotation
                      End Site
                      {
                        OFFSET -1.6527 -0.5689 1.1317
                      }
                    }
                  }
                }
              }
            }
          }
        }
      }
    }
  }
  JOINT RightUpLeg
  {
    OFFSET -9.1966 3.8861 -0.7581
    CHANNELS 3 Zrotation Xrotation Yrotation
    JOINT RightLeg
    {
      OFFSET -0.7359 -41.0265 0
      CHANNELS 3 Zrotation Xrotation Yrotation
      JOINT RightFoot
      {
        OFFSET 0 -40.2855 0
        CHANNELS 3 Zrotation Xrotation Yrotation
        JOINT RightToeBase
        {
          OFFSET 0 -5.6122 11.7359
          CHANNELS 3 Zrotation Xrotation Yrotation
          End Site
          {
            OFFSET 0 0 7.8731
          }
        }
      }
    }
  }
  JOINT LeftUpLeg
  {
    OFFSET 9.1965 3.8864 -0.7581
    CHANNELS 3 Zrotation Xrotation Yrotation
    JOINT LeftLeg
    {
      OFFSET 0.7359 -41.0268 0
      CHANNELS 3 Zrotation Xrotation Yrotation
      JOINT LeftFoot
      {
        OFFSET 0 -40.2855 0
        CHANNELS 3 Zrotation Xrotation Yrotation
        JOINT LeftToeBase
        {
          OFFSET 0 -5.6122 11.7359
          CHANNELS 3 Zrotation Xrotation Yrotation
          End Site
          {
            OFFSET 0 0 7.8731
          }
        }
      }
    }
  }
}
MOTION
Frames:	4
Frame Time:	0.0333333
5.84602e-005 68.8428 3.50346 0 0 -0 0 0 -0 0 0 -0 0 0 -0 0 0 -0 0 0 -0 0 0 -0 0 0 -0 0 0 -0 0 0 -0 0 0 -0 0 0 -0 0 0 -0 0 0 -0 -0.0146107 -8.87603e-005 -2.63497e-007 2.99804e-018 -2.42657e-020 -1.42182e-022 0 0 -0 -0.0187562 -0.001176 5.858e-005 5.06224e-018 3.88251e-019 1.21329e-020 0 0 -0 -0.012269 -0.00324817 0.000675346 -1.74678e-018 3.88251e-019 -0 0 0 -0 0 0 -0 0 0 -0 0 0 -0 0 0 -0 0 0 -0 0 0 -0 0 0 -0 0 0 -0 0 0 -0 0 0 -0 0.0149955 -9.10982e-005 2.64101e-007 -9.69331e-018 1.21329e-020 -4.7394e-023 0 0 -0 0.0189956 -0.00119102 -5.96516e-005 -5.41541e-019 0 2.42657e-020 0 0 -0 0.0122698 -0.00324857 -0.000673756 -2.00796e-019 0 -1.94126e-019 0 0 -0 0 0 -0 0 0 -0 3.39842 1.33031 -0.0637918 -5.65207e-008 0.834868 -0.000436188 -3.39935 -2.16518 -0.0642563 -8.89002e-024 -1.18485e-023 -1.48106e-024 -3.39844 1.35642 0.0640283 -3.18788e-007 0.782166 -0.000588827 3.39931 -2.13858 0.0634662 1.1399e-023 0 -0 
29.4151 68.7182 4.52497 0 2.97923 -0 -0.0285122 0.300519 -0.0918725 -0.0565437 0.601016 -0.183599 -0.0565437 0.601016 -0.183599 -7.96276e-006 -0.558943 -2.19609e-005 -5.49998e-009 -0.195582 -8.07561e-008 -3.67102 0.083019 5.67452 -41.7559 17.6913 6.03148 -23.7909 8.50924 -31.2747 -5.18543 8.19541e-007 -5.57543e-007 0 0 -1.59028e-015 -1.45496e-007 6.37271e-007 5.45252e-007 -2.78299e-015 -3.18055e-015 4.77083e-015 0 0 -1.59028e-015 -0.0146108 -8.82554e-005 9.19485e-007 -3.97569e-016 -3.18055e-015 1.59028e-015 0 0 -1.59028e-015 -0.0187144 -0.00117088 5.71495e-005 -2.38542e-015 6.36111e-015 -1.59028e-015 0 0 -1.59028e-015 -0.0123821 -0.00327705 0.000679611 -3.18055e-015 -3.18055e-015 -0 0 0 -1.59028e-015 -1.45496e-007 6.37271e-007 5.45252e-007 -2.78299e-015 -3.18055e-015 4.77083e-015 3.66842 0.0830722 -5.67715 41.753 17.6903 -6.03318 23.7881 8.50704 31.2722 5.18283 -2.61206e-008 -2.16946e-006 1.40247e-007 6.40107e-007 -5.43755e-007 4.04658e-007 1.92704e-007 -2.36772e-006 1.40247e-007 6.40107e-007 -5.43755e-007 1.40247e-007 6.40107e-007 -5.43755e-007 0.0149981 -8.98873e-005 1.59963e-006 1.40238e-007 6.40036e-007 -5.43839e-007 1.40247e-007 6.40107e-007 -5.43755e-007 0.0189802 -0.00119172 -6.55296e-005 1.40231e-007 6.40017e-007 -5.43862e-007 1.40247e-007 6.40107e-007 -5.43755e-007 0.0122605 -0.00324797 -0.000677874 1.40221e-007 6.40051e-007 -5.43827e-007 1.40247e-007 6.40107e-007 -5.43755e-007 4.04658e-007 1.92704e-007 -2.36772e-006 1.40247e-007 6.40107e-007 -5.43755e-007 -0.902085 -5.07206 -4.47379 4.41964 9.94147 -1.12686 -9.93205 -4.06499 2.13057 1.09332e-015 7.95139e-016 -0 2.48352 -5.61335 2.61163 -2.3152 10.7239 0.616997 6.04262 -4.18182 -0.436287 -3.44028e-007 -2.59536e-007 -5.39535e-007 
42.6521 68.6473 5.04126 0 4.23843 -0 -0.0466631 0.423492 -0.131957 -0.0923546 0.847124 -0.26358 -0.0923545 0.847123 -0.26358 9.16357e-006 -0.524529 2.76825e-005 7.1313e-008 -0.283593 -3.41471e-008 -5.3283 0.119533 8.22811 -61.8835 25.4945 9.23679 -31.6917 10.163 -45.7079 -7.51887 1.91693e-006 -1.44072e-006 -1.45881e-006 9.40106e-008 -1.1164e-007 -2.23773e-006 2.2717e-007 -1.26341e-007 -8.91773e-008 2.20887e-007 3.54171e-007 -1.45881e-006 9.40106e-008 -1.1164e-007 -0.0146267 -9.01602e-005 2.28915e-006 -1.50141e-006 2.04458e-007 6.54731e-008 -1.45881e-006 9.40106e-008 -1.1164e-007 -0.0187214 -0.00117251 5.757e-005 -8.91747e-008 2.2083e-007 3.54208e-007 -1.45881e-006 9.40106e-008 -1.1164e-007 -0.0122301 -0.0032349 0.000672925 -8.91667e-008 2.2085e-007 3.54198e-007 -1.45881e-006 9.40106e-008 -1.1164e-007 -2.23773e-006 2.2717e-007 -1.26341e-007 -8.91773e-008 2.20887e-007 3.54171e-007 5.32458 0.119618 -8.23181 61.8796 25.493 -9.23932 31.6886 10.1608 45.7042 7.5151 4.66304e-006 3.62916e-007 4.77083e-015 -3.18055e-015 1.59028e-015 1.64277e-006 -9.70251e-007 -1.18511e-006 1.98056e-006 -3.05547e-007 8.38894e-007 4.77083e-015 -3.18055e-015 1.59028e-015 0.0150057 -9.36826e-005 -2.4261e-006 -8.67305e-008 -2.23701e-007 3.52924e-007 4.77083e-015 -3.18055e-015 1.59028e-015 0.0189829 -0.00118892 -5.9754e-005 1.98215e-006 -3.05506e-007 8.38919e-007 4.77083e-015 -3.18055e-015 1.59028e-015 0.0122975 -0.00325289 -0.000678261 -8.67193e-008 -2.2371e-007 3.52922e-007 4.77083e-015 -3.18055e-015 1.59028e-015 1.64277e-006 -9.70251e-007 -1.18511e-006 1.98056e-006 -3.05547e-007 8.38894e-007 -3.18065 -7.87897 -6.55896 6.51006 14.2741 -1.65621 -12.8204 -5.03052 3.11837 -2.88238e-015 2.38542e-015 3.97569e-016 5.33904 -8.61735 3.81294 -3.40479 15.2606 0.912172 7.22248 -5.13157 -0.657852 -8.39254e-007 2.15529e-009 -2.55549e-007 
39.7105 68.6726 5.06233 0 3.77758 -0 -0.0422074 0.368988 -0.123223 -0.0836237 0.738088 -0.246181 -0.0836237 0.738088 -0.246181 -2.18131e-005 0.104238 -6.59833e-005 1.01216e-008 -0.264036 -6.96228e-009 -4.95976 0.111723 7.66059 -57.3276 23.7746 8.48039 -30.0419 9.96667 -42.4918 -7.00033 -1.13805e-006 2.33505e-007 8.803e-008 -2.4392e-007 -3.39079e-007 6.60225e-008 -1.8294e-007 -2.54309e-007 1.59028e-015 6.36111e-015 -1.59028e-015 8.803e-008 -2.4392e-007 -3.39079e-007 -0.0146301 -8.93116e-005 2.17607e-007 7.95139e-016 -3.18055e-015 4.77083e-015 8.803e-008 -2.4392e-007 -3.39079e-007 -0.0187133 -0.00117322 5.86947e-005 4.77083e-015 0 -7.95139e-015 8.803e-008 -2.4392e-007 -3.39079e-007 -0.0123101 -0.00325806 0.000675159 7.15625e-015 -3.18055e-015 -4.77083e-015 8.803e-008 -2.4392e-007 -3.39079e-007 6.60225e-008 -1.8294e-007 -2.54309e-007 1.59028e-015 6.36111e-015 -1.59028e-015 4.95623 0.111786 -7.66421 57.3239 23.7732 -8.48274 30.0387 9.96433 42.4884 6.99681 2.25566e-006 -2.50037e-006 -9.47849e-008 -2.73385e-007 3.74903e-007 2.44872e-006 -1.15395e-007 7.23269e-007 1.46382e-006 1.54099e-008 3.82608e-007 -9.47849e-008 -2.73385e-007 3.74903e-007 0.0149645 -9.11763e-005 -5.20047e-007 7.95139e-016 9.54166e-015 1.59028e-015 -9.47849e-008 -2.73385e-007 3.74903e-007 0.0189797 -0.00119283 -6.02212e-005 7.95139e-016 -9.54166e-015 3.18055e-015 -9.47849e-008 -2.73385e-007 3.74903e-007 0.0122769 -0.00325018 -0.000674731 -1.59028e-015 0 -1.59028e-015 -9.47849e-008 -2.73385e-007 3.74903e-007 2.44872e-006 -1.15395e-007 7.23269e-007 1.46382e-006 1.54099e-008 3.82608e-007 -2.67463 -6.9374 -6.22687 6.03931 13.313 -1.53701 -12.1814 -4.81514 2.89873 1.81391e-015 -7.95139e-016 1.59028e-015 4.70046 -7.63164 3.60162 -3.1599 14.2585 0.845668 6.96087 -4.92254 -0.60861 1.93491e-008 4.10099e-007 -2.42852e-007 
